<svg version="1.1" viewBox="0.0 0.0 100.0 100.0" fill="none" stroke="none" stroke-linecap="square" stroke-miterlimit="10" xmlns:xlink="http://www.w3.org/1999/xlink" xmlns="http://www.w3.org/2000/svg"><clipPath id="p.0"><path d="m0 0l100.0 0l0 100.0l-100.0 0l0 -100.0z" clip-rule="nonzero"/></clipPath><g clip-path="url(#p.0)"><path fill="#000000" fill-opacity="0.0" d="m0 0l100.0 0l0 100.0l-100.0 0z" fill-rule="evenodd"/><path fill="#666666" d="m9.019029 49.995407l0 0c0 -22.630629 18.345749 -40.97638 40.97638 -40.97638l0 0c10.867611 0 21.290115 4.3171415 28.974678 12.001704c7.684555 7.684561 12.001701 18.107063 12.001701 28.974674l0 0c0 22.63063 -18.345749 40.97638 -40.97638 40.97638l0 0c-22.630629 0 -40.97638 -18.345749 -40.97638 -40.97638z" fill-rule="evenodd"/><path stroke="#000000" stroke-width="2.0" stroke-linejoin="round" stroke-linecap="butt" d="m9.019029 49.995407l0 0c0 -22.630629 18.345749 -40.97638 40.97638 -40.97638l0 0c10.867611 0 21.290115 4.3171415 28.974678 12.001704c7.684555 7.684561 12.001701 18.107063 12.001701 28.974674l0 0c0 22.63063 -18.345749 40.97638 -40.97638 40.97638l0 0c-22.630629 0 -40.97638 -18.345749 -40.97638 -40.97638z" fill-rule="evenodd"/></g></svg>